<?xml version="1.0" standalone="no"?>
<!DOCTYPE svg PUBLIC "-//W3C//DTD SVG 20010904//EN"
 "http://www.w3.org/TR/2001/REC-SVG-20010904/DTD/svg10.dtd">
<svg version="1.0" xmlns="http://www.w3.org/2000/svg"
 width="1280.000000pt" height="960.000000pt" viewBox="0 0 1280.000000 960.000000"
 preserveAspectRatio="xMidYMid meet">

<g transform="translate(0.000000,960.000000) scale(0.100000,-0.100000)"
fill="#000000" stroke="none">
<path d="M8315 7540 c-7 -11 9 -11 45 0 24 8 24 8 -7 9 -17 1 -35 -3 -38 -9z"/>
<path d="M8392 7534 c4 -3 39 -10 80 -15 97 -11 556 -101 542 -106 -6 -2 -103
12 -215 32 -365 63 -551 77 -709 54 -36 -5 -195 -13 -355 -19 -305 -10 -533
-24 -675 -40 -47 -5 -141 -14 -210 -20 -395 -35 -772 -79 -765 -90 2 -3 -12
-4 -30 -2 -55 6 -510 -63 -741 -113 -64 -14 -154 -27 -200 -30 -99 -7 -289
-58 -398 -108 -173 -81 -414 -264 -717 -548 l-124 -116 -75 -12 c-41 -6 -97
-19 -124 -27 -42 -14 -51 -22 -68 -61 -16 -37 -18 -47 -7 -54 8 -5 78 -9 156
-9 l142 0 38 43 c77 88 391 396 473 464 94 78 421 328 448 342 29 15 375 77
672 120 314 46 1060 123 1167 120 27 -1 -25 -11 -122 -23 -93 -12 -163 -25
-155 -28 11 -5 9 -7 -6 -7 -21 -1 -76 -20 -121 -43 -11 -6 -27 -7 -33 -3 -7 4
-15 3 -19 -3 -3 -5 -35 -19 -71 -30 -59 -18 -63 -20 -41 -29 23 -9 21 -11 -27
-26 -28 -9 -63 -17 -79 -17 -15 0 -64 -16 -108 -35 -45 -20 -96 -35 -118 -35
-22 0 -36 -4 -32 -9 3 -6 -11 -13 -32 -16 -21 -4 -45 -9 -53 -12 -8 -4 -19 -5
-23 -4 -4 1 -19 -12 -33 -29 -16 -18 -35 -30 -51 -30 -13 0 -31 -6 -38 -12
-33 -30 -41 -34 -53 -30 -9 3 -11 -3 -7 -20 4 -16 -10 -56 -48 -133 -65 -131
-157 -339 -157 -353 0 -15 -38 -22 -123 -22 -99 0 -390 -18 -482 -30 -48 -6 7
-7 180 -4 232 4 285 -2 183 -20 -58 -10 -61 -31 -4 -23 30 4 45 3 41 -3 -3 -6
-14 -10 -23 -10 -9 0 -53 -9 -97 -20 -89 -22 -135 -19 -135 10 0 13 -10 20
-36 25 -46 8 -293 -3 -449 -21 -115 -13 -161 -13 -93 1 91 17 128 28 128 36 0
10 -79 3 -140 -12 -19 -5 -62 -15 -95 -23 -33 -8 -89 -19 -125 -24 l-65 -9 60
-3 c58 -2 59 -2 25 -12 -284 -80 -341 -95 -312 -82 6 3 12 10 12 15 0 4 -6 6
-12 4 -7 -3 -101 -12 -208 -20 -107 -8 -240 -19 -295 -25 -55 -5 -113 -9 -130
-9 l-30 0 25 12 c14 7 78 26 144 43 116 28 118 29 75 36 -75 11 -172 8 -234
-8 -33 -8 -96 -19 -140 -24 -44 -4 -118 -15 -165 -24 -54 -10 -86 -12 -88 -6
-5 15 -217 12 -296 -5 -39 -8 -89 -28 -117 -45 -38 -25 -68 -34 -146 -45 -116
-17 -153 -27 -196 -54 -45 -28 -114 -101 -126 -133 -9 -24 -7 -28 24 -47 19
-11 53 -26 75 -32 47 -14 42 -26 -15 -31 l-40 -3 32 -15 c18 -8 33 -20 33 -26
0 -10 77 -35 105 -34 6 0 14 14 18 32 11 40 33 73 41 60 3 -6 2 -21 -3 -34 -5
-12 -16 -77 -25 -143 -24 -176 -25 -180 -42 -201 -14 -18 -15 -14 -10 43 3 34
8 80 12 102 5 33 4 41 -9 41 -8 0 -15 6 -14 13 2 55 -3 68 -23 62 -12 -4 -27
-1 -35 5 -25 21 -45 5 -36 -27 19 -64 33 -83 62 -83 15 0 31 -4 34 -10 10 -16
-61 -12 -75 5 -7 8 -18 15 -25 15 -7 0 -24 10 -39 21 -36 28 -74 20 -132 -27
-50 -41 -57 -59 -18 -50 23 6 24 5 12 -7 -7 -8 -31 -18 -53 -24 -32 -7 -40
-14 -39 -31 0 -18 -5 -22 -28 -22 -15 0 -28 -4 -28 -10 0 -11 49 -25 135 -39
l60 -10 -55 5 c-30 3 -87 7 -125 11 l-70 6 -43 -62 c-41 -58 -44 -67 -53 -159
-12 -117 -8 -278 6 -275 6 1 24 5 40 9 29 7 30 7 12 -13 -16 -19 -16 -21 6
-54 28 -42 49 -47 64 -14 12 28 3 34 -17 10 -18 -22 -27 -19 -38 15 -9 25 -8
31 7 39 12 7 22 6 29 -1 7 -7 15 -1 26 21 l16 31 -32 -7 c-18 -3 -30 -3 -27 1
10 11 159 44 159 35 0 -4 -10 -9 -23 -11 -15 -2 -21 -9 -20 -23 1 -10 -7 -31
-18 -46 -11 -15 -30 -47 -43 -70 -20 -34 -30 -42 -56 -44 -40 -3 -53 -17 -53
-54 0 -44 20 -63 56 -55 l30 6 -7 -163 c-4 -90 -10 -182 -14 -204 -5 -26 -3
-48 4 -64 10 -20 10 -28 -3 -48 l-16 -24 -20 22 c-14 15 -17 24 -9 27 14 4 18
217 4 226 -10 6 -3 74 9 82 12 7 11 101 -1 109 -6 4 -10 -15 -10 -50 0 -37 -4
-54 -11 -50 -6 4 -9 33 -7 70 2 49 -1 68 -15 83 -17 19 -24 62 -9 62 4 0 14
13 24 29 15 28 15 30 -6 50 -12 12 -26 21 -31 21 -10 0 10 -450 30 -652 l4
-47 -52 -28 c-48 -26 -52 -31 -55 -67 -2 -22 2 -60 8 -85 20 -81 92 -249 122
-285 32 -39 41 -42 206 -59 l114 -12 29 -115 c53 -206 152 -383 297 -527 46
-46 79 -83 73 -83 -21 0 -34 -76 -22 -125 28 -110 159 -198 396 -264 194 -54
764 -54 1025 0 30 7 64 13 75 14 22 3 265 51 305 60 124 29 267 37 545 31
1119 -22 1207 -28 1550 -106 178 -40 382 -78 490 -92 165 -20 747 -16 935 6
139 17 447 74 520 96 117 37 398 102 531 124 342 56 1017 77 1334 42 88 -10
252 -20 365 -22 170 -3 222 0 305 16 111 21 188 43 219 64 12 7 47 16 79 20
71 8 101 22 148 73 59 61 98 151 165 381 2 7 22 12 51 13 85 2 106 11 125 49
18 38 48 230 48 310 l0 49 59 35 c57 35 100 84 121 139 13 35 23 619 14 800
-5 97 -10 127 -20 127 -18 0 -70 55 -77 81 -3 12 0 22 8 25 11 5 11 11 0 37
-8 19 -17 103 -22 207 -9 204 -9 215 1 258 12 48 -18 55 -56 13 -16 -18 -31
-31 -32 -29 -4 4 12 201 22 277 l7 53 20 -22 c17 -19 20 -36 20 -126 0 -80 3
-105 14 -109 12 -5 13 11 9 93 -3 53 -12 113 -21 133 -8 19 -45 63 -83 97 -66
59 -102 81 -73 45 13 -16 12 -17 -3 -4 -10 7 -15 17 -13 22 6 9 -46 39 -69 39
-21 0 -60 60 -151 230 -110 205 -223 402 -326 566 -49 77 -89 145 -89 151 0
23 -75 112 -137 162 -74 59 -177 111 -330 167 -167 61 -429 143 -628 195 -104
27 -247 66 -316 85 -320 88 -849 191 -817 158z m253 -129 c401 -53 1179 -254
1572 -406 114 -45 167 -85 239 -183 43 -58 42 -57 -38 27 -52 55 -91 87 -104
87 -11 0 -58 15 -105 34 -196 79 -555 180 -1084 305 -324 76 -562 113 -754
115 -113 1 -127 10 -26 16 l40 3 -45 7 c-95 15 190 10 305 -5z m-1822 -62
c-13 -2 -33 -2 -45 0 -13 2 -3 4 22 4 25 0 35 -2 23 -4z m1162 -410 c-51 -188
-69 -236 -60 -161 14 116 94 386 103 346 2 -9 -17 -92 -43 -185z m2455 -150
c98 -104 249 -289 331 -404 72 -101 74 -106 76 -166 1 -34 4 -66 7 -72 8 -12
-3 -41 -15 -41 -5 0 -9 -5 -9 -11 0 -5 5 -7 10 -4 6 4 10 -10 10 -35 0 -22 9
-60 20 -82 26 -55 25 -66 -7 -79 -16 -6 -36 -15 -46 -21 -25 -13 -34 -2 -19
22 21 34 48 170 34 170 -5 0 -18 -33 -28 -72 -22 -85 -42 -110 -81 -103 -16 2
-95 9 -178 16 -226 16 -270 23 -267 38 1 7 -6 15 -16 18 -15 3 -31 38 -65 141
-25 76 -44 138 -42 140 1 1 10 -13 19 -31 18 -38 46 -67 46 -48 0 7 5 9 10 6
13 -8 13 0 -5 65 -19 71 -19 73 6 59 16 -8 23 -8 29 1 5 7 18 -19 34 -66 31
-93 42 -113 54 -99 5 6 4 42 -2 88 -7 42 -9 77 -6 77 3 0 32 -42 65 -93 59
-89 62 -92 95 -89 19 2 42 10 50 17 35 31 151 -17 158 -65 3 -18 6 -20 13 -9
15 24 10 -48 -6 -88 l-15 -36 -123 7 c-299 15 -295 15 -242 7 28 -5 121 -14
208 -22 152 -12 158 -12 176 7 27 28 51 148 51 258 0 95 0 97 -45 177 -68 123
-274 387 -384 494 -23 21 -41 43 -41 48 0 14 73 -48 140 -120z m-4536 38 c-17
-10 -40 -32 -52 -47 -12 -16 -22 -26 -22 -23 0 12 52 74 68 81 33 13 37 8 6
-11z m2090 -83 c4 -28 3 -48 -2 -48 -11 0 -24 79 -15 93 8 12 10 7 17 -45z
m731 42 c-22 -5 -86 -16 -143 -25 -57 -9 -125 -23 -151 -31 -89 -26 -181 -117
-216 -212 -10 -28 -14 -32 -14 -14 -1 37 60 185 89 213 40 41 225 76 400 77
65 0 69 -1 35 -8z m281 -97 c8 -29 14 -61 12 -71 -3 -9 -10 8 -17 38 -6 30
-21 71 -33 90 l-20 35 21 -19 c12 -11 28 -44 37 -73z m1505 -60 c13 -16 12
-17 -3 -4 -10 7 -18 15 -18 17 0 8 8 3 21 -13z m30 -40 c13 -16 12 -17 -3 -4
-10 7 -18 15 -18 17 0 8 8 3 21 -13z m-2427 -53 c-14 -52 -21 -167 -13 -200 2
-8 -2 -15 -10 -15 -15 0 -52 116 -64 200 -3 22 -3 32 -1 23 8 -28 27 -21 22 7
-3 14 -1 28 3 31 5 3 9 -2 9 -10 0 -23 37 -19 50 5 18 33 19 18 4 -41z m891
38 c39 -4 44 -42 5 -45 -14 -1 -54 -4 -90 -7 -36 -3 -103 -8 -150 -11 -47 -2
-108 -8 -134 -11 -36 -5 -47 -4 -42 5 12 19 86 53 86 40 0 -8 7 -6 18 4 12 11
37 17 68 18 27 0 81 6 119 13 39 7 75 10 80 5 6 -4 24 -9 40 -11z m1596 -65
c13 -16 12 -17 -3 -4 -10 7 -18 15 -18 17 0 8 8 3 21 -13z m-1584 -45 c-3 -7
-5 -2 -5 12 0 14 2 19 5 13 2 -7 2 -19 0 -25z m-1372 2 c3 -6 3 -19 0 -30 -5
-17 -12 -19 -47 -13 -35 5 -40 4 -35 -10 4 -11 0 -15 -14 -14 -27 2 -24 7 18
44 39 33 67 41 78 23z m362 -36 c-3 -3 -12 -4 -19 -1 -8 3 -5 6 6 6 11 1 17
-2 13 -5z m-2318 -43 c17 -11 5 -17 -49 -25 -30 -4 -38 -3 -25 3 21 9 21 9
-25 24 -8 3 8 6 35 6 28 0 56 -3 64 -8z m3356 -162 c14 -67 23 -124 21 -126
-4 -5 -75 1 -386 31 -80 8 -201 19 -270 25 -69 6 -145 14 -170 17 -39 5 -42 7
-25 17 13 8 75 12 165 13 80 1 159 4 175 7 352 71 398 86 389 124 -4 15 -2 23
6 23 7 0 10 -7 6 -15 -10 -27 15 -16 32 15 21 36 22 35 57 -131z m-1807 139
c177 -9 232 -14 232 -24 0 -10 -17 -12 -71 -8 -39 3 -326 6 -637 7 -545 2
-614 8 -312 26 211 13 533 12 788 -1z m1946 -43 c-3 33 -2 56 3 50 11 -14 73
-18 73 -5 0 7 6 7 19 1 10 -6 20 -8 23 -6 2 3 39 -2 82 -10 43 -8 82 -13 87
-10 5 3 18 1 29 -5 14 -7 26 -7 39 -1 14 8 23 6 36 -9 11 -12 53 -27 114 -41
53 -12 104 -26 114 -31 16 -8 17 -6 12 26 -4 19 -2 42 3 52 8 14 19 -11 55
-122 24 -76 48 -154 52 -172 l7 -33 -39 6 c-145 20 -473 47 -603 49 -85 1
-132 1 -103 -1 34 -3 53 -9 57 -19 5 -13 -2 -14 -37 -10 -64 8 -212 22 -657
61 -222 20 -406 38 -409 41 -17 17 32 20 154 8 77 -7 196 -18 265 -24 69 -7
212 -20 319 -31 246 -24 254 -24 242 -1 -12 20 -41 195 -41 241 0 30 14 43 22
19 3 -8 11 -5 24 8 19 20 19 20 41 -36 l22 -55 -5 60z m-1129 24 c5 -7 -5 -8
-32 -3 -51 9 -54 14 -10 14 20 0 39 -5 42 -11z m-495 -3 c0 -2 -13 -6 -30 -8
-16 -3 -30 -1 -30 4 0 4 14 8 30 8 17 0 30 -2 30 -4z m-1650 -16 c-36 -9 -272
-41 -287 -39 -4 0 15 7 42 15 49 15 174 31 245 32 l35 0 -35 -8z m237 4 c-3
-3 -12 -4 -19 -1 -8 3 -5 6 6 6 11 1 17 -2 13 -5z m3823 -49 c1 -16 35 -56 50
-58 8 -2 21 -6 28 -10 15 -10 15 -9 -3 43 -8 23 -15 45 -15 49 1 15 34 -57 74
-166 25 -65 48 -126 52 -137 7 -17 3 -18 -52 -12 -32 4 -76 7 -97 8 -34 1 -38
4 -47 37 -5 20 -18 71 -29 113 -24 89 -26 113 -7 79 l13 -24 6 25 c4 14 2 40
-3 59 -6 19 -10 38 -10 44 1 13 39 -36 40 -50z m-2382 26 l24 -1 -26 -31 c-41
-49 -59 -89 -58 -133 l1 -41 -120 1 c-147 2 -146 -12 2 -33 57 -8 108 -19 114
-24 6 -6 4 -25 -4 -52 -7 -23 -14 -58 -15 -77 -1 -33 2 -37 54 -63 30 -15 71
-30 90 -33 19 -3 38 -8 41 -10 4 -2 38 -8 75 -13 88 -13 153 4 209 55 53 48
82 67 93 60 5 -3 26 -41 47 -85 45 -92 58 -101 22 -15 -26 62 -45 139 -29 116
8 -11 15 -11 43 1 19 8 40 21 48 30 11 14 33 17 105 18 50 0 100 4 111 8 18 7
16 9 -12 15 -17 4 -37 13 -43 21 -6 8 -17 12 -24 9 -7 -3 -13 2 -13 11 0 11
13 15 51 16 47 2 44 3 -34 15 l-85 13 80 -5 c44 -2 271 -20 505 -40 l425 -36
30 -31 c17 -18 45 -50 63 -72 17 -22 32 -37 32 -33 0 4 -22 34 -49 66 -47 56
-55 76 -28 67 14 -5 1192 -116 1390 -131 48 -4 87 -11 87 -15 0 -5 6 -9 14 -9
7 0 22 -12 31 -27 17 -25 17 -27 -1 -40 -28 -20 -82 -32 -156 -34 -38 -1 -68
-5 -68 -9 0 -4 21 -13 46 -19 47 -12 257 -117 262 -131 2 -4 14 -21 28 -37 13
-15 24 -31 24 -35 0 -7 -66 -13 -135 -11 -237 4 -259 8 -270 42 -4 12 -26 24
-70 36 -35 9 -72 23 -82 31 -24 18 -82 18 -102 0 -15 -14 -40 -20 -71 -17 -17
1 -64 42 -78 66 -10 20 -74 29 -332 50 -107 9 -373 31 -590 50 -608 53 -939
77 -961 70 -19 -6 -17 -9 18 -33 66 -44 70 -66 16 -81 -21 -6 -57 -11 -80 -11
-27 0 -43 -5 -44 -12 0 -7 -5 -2 -10 12 -9 21 -12 22 -19 10 -13 -23 -72 -23
-159 -1 -42 10 -116 24 -166 31 -49 6 -117 18 -150 25 -33 7 -88 16 -122 20
-64 7 -82 20 -40 28 16 3 14 5 -9 6 -35 1 -209 35 -264 51 -19 5 -64 10 -99
10 -87 0 -187 32 -197 62 -3 10 -11 18 -18 18 -18 0 -45 65 -34 84 14 26 58
43 141 56 42 7 77 16 77 20 0 9 -31 36 -50 43 -8 3 72 6 178 6 191 1 193 1
217 26 15 15 25 36 25 54 0 48 8 58 43 55 18 -1 43 -3 55 -3z m2575 -182 c25
-69 47 -129 49 -135 2 -5 -1 -10 -6 -12 -5 -2 -16 16 -24 40 -7 24 -34 98 -58
166 -24 67 -44 126 -44 130 2 18 42 -74 83 -189z m-2701 141 c-2 -21 -10 -44
-17 -50 -9 -7 -86 -8 -251 -2 -235 9 -237 9 -81 10 126 2 162 5 173 17 9 8 26
15 39 15 13 0 27 5 30 10 3 6 24 10 46 10 26 0 42 5 45 15 11 28 20 15 16 -25z
m-2524 -19 c-97 -44 -137 -66 -286 -159 -57 -35 -105 -62 -107 -60 -14 14 425
258 463 258 9 0 -22 -18 -70 -39z m897 20 c-55 -18 -98 -44 -89 -53 7 -8 -81
-68 -114 -78 -24 -7 -21 -9 18 -10 l45 -2 -40 -9 c-54 -13 -517 -95 -580 -103
-41 -5 -46 -4 -30 5 11 7 36 29 55 49 19 21 58 54 85 75 48 37 48 36 -10 -17
-33 -31 -57 -59 -54 -62 3 -3 53 18 111 48 115 58 174 76 443 135 196 43 237
49 160 22z m1871 -22 c9 -16 -12 -33 -31 -25 -14 5 -15 9 -5 21 15 18 26 19
36 4z m330 -97 c-15 -15 -15 -15 -4 10 7 15 15 23 17 17 2 -6 -4 -18 -13 -27z
m78 13 c-4 -8 -10 -12 -15 -9 -14 8 -10 24 6 24 9 0 12 -6 9 -15z m-1429 -58
c-6 -28 -19 -44 -73 -83 -89 -65 -226 -197 -245 -236 -21 -43 -12 -58 34 -58
45 0 50 -14 19 -53 -17 -22 -30 -26 -98 -32 -42 -3 -92 -8 -110 -11 -30 -5
-33 -3 -27 15 4 15 2 21 -8 21 -8 0 -17 7 -21 15 -3 8 -17 15 -31 15 -14 0
-25 5 -25 11 0 8 -12 9 -37 5 -99 -17 -515 -44 -502 -32 7 7 350 45 441 49 48
2 91 1 95 -3 4 -4 24 -10 43 -14 24 -4 30 -3 20 3 -23 15 -11 19 78 25 94 7
98 8 105 36 5 21 -2 24 -55 20 -33 -2 -34 0 -8 68 11 29 20 62 20 75 0 37 44
75 95 82 24 4 52 5 60 1 11 -4 14 -2 9 6 -5 7 -2 9 9 5 11 -4 14 -2 10 9 -3 7
-18 14 -33 14 -15 0 -43 6 -61 14 l-33 14 57 12 c32 6 97 12 145 13 67 2 91 6
106 19 25 23 29 18 21 -25z m-598 17 c-3 -3 -12 -4 -19 -1 -8 3 -5 6 6 6 11 1
17 -2 13 -5z m-82 -14 c-16 -4 -124 -25 -238 -46 -133 -24 -203 -41 -195 -46
8 -6 0 -7 -22 -3 -26 5 -31 4 -20 -4 12 -8 7 -11 -22 -11 -24 0 -37 -4 -35
-12 1 -6 -6 -14 -17 -16 -11 -2 -16 0 -12 7 5 7 -3 11 -20 11 -26 0 -27 -1 -9
-14 16 -12 11 -14 -49 -26 -66 -12 -80 -24 -29 -25 14 0 28 -6 30 -12 3 -7 -3
-13 -12 -13 -10 0 -13 -5 -9 -12 5 -8 -2 -9 -24 -5 -24 5 -32 3 -32 -7 0 -8
-4 -16 -8 -18 -5 -1 -23 -30 -42 -63 -18 -33 -41 -64 -49 -70 -16 -10 -155
-34 -201 -35 -57 -1 3 18 96 30 l100 13 27 51 c32 61 33 66 7 59 -16 -4 -19
-2 -13 12 4 13 3 16 -6 11 -6 -4 -11 -13 -10 -19 9 -72 -10 -87 -132 -103 -65
-8 -107 -10 -113 -4 -15 15 2 24 18 11 26 -21 25 4 0 35 -23 26 -25 27 -21 7
6 -25 -3 -29 -21 -11 -20 20 -44 -10 -37 -46 l6 -31 -19 24 -20 25 -46 -38
c-56 -46 -76 -73 -73 -104 2 -27 18 -28 242 -7 145 13 263 18 225 9 -8 -2
-152 -15 -320 -29 -168 -14 -320 -27 -337 -29 -18 -1 -36 -6 -40 -9 -3 -4 -15
-7 -25 -7 -22 0 -24 -18 -3 -26 8 -4 15 -11 15 -17 0 -8 -4 -7 -12 1 -7 7 -17
8 -30 1 -27 -14 -24 18 5 50 21 24 20 24 -18 -4 l-40 -28 25 27 c27 30 223
162 293 197 23 12 74 43 112 69 39 26 93 59 122 73 28 15 55 31 58 37 8 12
-58 -13 -92 -36 -43 -27 -23 -5 22 26 49 34 120 48 775 160 270 46 363 59 295
40z m340 -47 c-4 -10 -10 -26 -12 -36 -5 -16 -14 -17 -92 -12 -47 4 -91 8 -97
10 -6 2 -22 -15 -35 -36 -54 -90 -82 -130 -86 -125 -3 3 4 17 15 33 17 24 62
111 62 120 0 2 -12 3 -27 3 l-27 0 22 22 c18 18 38 23 104 29 162 12 181 11
173 -8z m-560 -23 c-11 -5 -27 -9 -35 -9 -9 0 -8 4 5 9 11 5 27 9 35 9 9 0 8
-4 -5 -9z m2525 0 c0 -13 -11 -13 -30 0 -12 8 -11 10 8 10 12 0 22 -4 22 -10z
m1455 -36 c264 -26 484 -51 490 -56 15 -13 -36 -10 -518 36 -264 25 -463 48
-470 55 -15 15 -39 17 498 -35z m-4038 30 c-3 -3 -12 -4 -19 -1 -8 3 -5 6 6 6
11 1 17 -2 13 -5z m-54 -11 c-7 -2 -21 -2 -30 0 -10 3 -4 5 12 5 17 0 24 -2
18 -5z m-725 -19 c34 -14 35 -17 18 -27 -84 -53 -432 -288 -476 -323 -165
-130 -170 -144 -81 -276 72 -108 361 -652 508 -956 51 -106 93 -195 93 -198 0
-4 -6 -2 -12 4 -16 12 -56 -2 -64 -23 -4 -8 -11 -15 -18 -15 -16 -1 -68 -49
-62 -58 5 -9 -177 -35 -249 -36 -38 -1 -41 1 -65 49 l-25 50 -85 -2 c-47 0
-374 -5 -727 -10 -353 -4 -645 -11 -649 -15 -4 -5 6 -8 22 -8 20 0 25 -3 15
-9 -9 -6 -10 -11 -3 -15 6 -4 9 -13 5 -21 -3 -8 0 -15 7 -15 21 0 -1 -20 -23
-21 -14 0 -4 -8 28 -20 50 -18 45 -19 -635 -11 -893 9 -852 9 -857 -5 -4 -10
14 -13 64 -14 37 -1 82 -4 98 -8 18 -4 40 -1 55 6 19 10 104 13 337 13 171 0
314 -4 317 -8 2 -4 -137 -6 -310 -4 l-314 4 -34 -34 c-32 -32 -41 -35 -112
-41 -76 -6 -99 -17 -89 -44 2 -7 2 -13 -1 -13 -6 0 -29 62 -27 71 1 3 3 34 4
70 1 35 6 69 11 76 5 7 7 17 3 23 -4 6 -1 18 6 26 7 8 11 36 10 62 -2 26 -3
56 -3 67 0 28 76 328 118 465 79 255 126 398 149 450 38 87 29 48 -30 -130
-59 -175 -119 -384 -154 -540 -12 -52 -30 -121 -40 -152 -10 -32 -14 -58 -9
-58 4 0 8 -18 8 -39 0 -22 5 -43 12 -47 10 -6 257 -33 316 -34 26 0 30 16 5
24 -10 3 47 3 127 0 80 -2 572 -6 1094 -7 521 -1 931 -5 910 -9 -22 -4 -54 -7
-72 -7 -20 -1 -31 -5 -27 -11 4 -6 38 -8 88 -5 45 3 152 10 237 15 85 6 206
20 269 31 95 18 119 26 139 48 49 52 47 71 -29 231 -22 47 -58 126 -81 175
-60 128 -215 431 -309 601 -75 138 -109 207 -109 224 0 4 62 52 138 106 295
210 361 262 368 291 4 16 14 33 21 38 17 13 -197 10 -527 -5 -118 -6 -377 -17
-575 -25 -424 -18 -801 -39 -1045 -60 -450 -39 -512 -45 -533 -56 -20 -11 -21
-11 -8 4 15 19 1 23 -17 5 -6 -6 -14 -9 -18 -6 -3 4 3 15 13 25 16 16 46 21
189 31 93 7 216 17 274 22 388 36 645 52 1480 90 118 6 285 15 370 20 365 24
528 25 578 4z m1066 -9 c-4 -8 -1 -15 5 -15 8 0 6 -12 -4 -37 -20 -47 -23 -50
-60 -58 -26 -6 -28 -5 -14 7 16 13 59 86 59 100 0 3 -8 9 -17 11 -11 3 -8 5 9
6 20 1 26 -3 22 -14z m-242 -14 c4 -3 3 -13 -2 -21 -8 -12 -11 -13 -19 -1 -6
10 -10 10 -16 1 -4 -6 -12 -9 -19 -7 -7 3 -32 -31 -59 -79 -26 -45 -55 -85
-65 -88 -31 -9 -135 -26 -161 -26 -49 0 -10 13 75 24 l87 11 34 65 c19 36 39
71 45 78 8 9 5 12 -13 13 -22 1 -21 2 8 15 17 7 34 18 38 24 6 10 53 4 67 -9z
m135 -40 c-2 -53 -4 -60 -24 -64 -26 -5 -30 5 -9 22 18 15 17 51 -2 51 -9 0
-11 -7 -7 -20 8 -24 -7 -26 -26 -4 -11 14 -10 18 6 30 10 8 25 14 32 14 7 0
13 7 13 15 0 8 4 15 10 15 5 0 8 -27 7 -59z m-1167 9 c0 -5 -2 -10 -4 -10 -3
0 -8 5 -11 10 -3 6 -1 10 4 10 6 0 11 -4 11 -10z m878 -7 c-9 -2 -19 -11 -22
-19 -3 -9 -1 -12 4 -9 13 8 13 2 -2 -30 -6 -14 -19 -25 -30 -25 -10 0 -18 -5
-18 -11 0 -6 7 -8 16 -5 10 4 14 1 12 -6 -3 -7 -22 -14 -44 -15 -21 -1 -32 1
-24 3 19 6 73 90 66 103 -7 11 11 20 39 19 15 0 16 -1 3 -5z m-128 -17 c0 -3
-4 -8 -10 -11 -5 -3 -10 -1 -10 4 0 6 5 11 10 11 6 0 10 -2 10 -4z m-776 -27
c-10 -12 -38 -34 -61 -50 -38 -27 -48 -29 -125 -28 l-83 2 88 7 c84 7 89 9
135 48 50 44 78 56 46 21z m716 10 c0 -5 -9 -9 -20 -9 -11 0 -20 4 -20 8 0 4
9 8 20 9 11 1 20 -2 20 -8z m-990 -13 c0 -7 -113 -96 -122 -96 -6 0 -7 7 -4
16 5 13 3 14 -6 6 -29 -23 -205 -36 -953 -68 -82 -4 -155 -11 -161 -15 -6 -5
-14 -5 -19 -1 -4 4 -5 -2 -2 -13 4 -11 9 -40 11 -65 l5 -45 -18 40 c-34 75
-85 105 -177 105 -88 0 -139 -18 -193 -66 -61 -55 -85 -104 -83 -168 3 -74 26
-111 85 -141 141 -70 334 21 378 178 7 23 21 52 32 64 22 25 50 28 362 43 116
6 300 17 410 26 186 14 203 17 238 41 53 36 56 23 5 -20 -24 -19 -58 -49 -77
-66 -35 -31 -51 -38 -51 -23 0 10 -113 3 -120 -8 -3 -4 -140 -14 -305 -24
-165 -9 -339 -19 -386 -22 l-86 -6 -16 -37 c-23 -52 -74 -109 -126 -143 -30
-20 -37 -27 -21 -23 14 4 41 20 60 35 44 34 107 45 370 65 107 8 263 20 345
26 l150 12 40 38 c23 22 49 39 59 39 13 0 9 -8 -18 -34 -20 -18 -36 -42 -36
-52 0 -15 4 -14 17 8 18 28 31 30 98 13 38 -10 55 -23 66 -52 8 -23 29 -32 29
-13 0 6 -4 10 -9 10 -5 0 -8 11 -8 25 0 14 3 25 8 25 5 0 9 -8 9 -19 0 -10 13
-43 28 -74 l28 -55 -120 -4 c-67 -2 -127 0 -133 5 -8 5 -51 6 -100 2 -49 -5
-143 -7 -210 -6 -89 1 -123 -2 -123 -10 0 -8 15 -10 48 -6 26 3 65 2 87 -2 29
-5 -8 -10 -135 -19 -559 -39 -1510 -66 -1510 -43 0 5 10 12 23 14 18 4 17 5
-7 6 -25 1 -27 4 -21 24 24 76 -10 87 -38 12 -23 -62 -29 -69 -57 -60 -13 4
-18 10 -12 14 11 7 44 81 35 81 -3 0 -1 6 5 13 5 6 13 33 17 60 7 43 10 47 35
47 27 0 28 -1 18 -40 -12 -47 4 -70 50 -70 35 0 44 8 32 29 -8 16 0 17 83 14
141 -5 449 -4 455 1 2 3 13 1 23 -5 21 -11 26 0 8 18 -5 5 -14 32 -18 59 -5
32 -12 48 -20 46 -7 -1 -129 -5 -271 -9 -204 -5 -265 -3 -290 7 -27 11 -30 15
-18 24 8 6 17 18 20 26 4 12 19 14 76 12 62 -3 179 3 447 24 70 5 70 5 118 60
38 42 43 52 25 45 -30 -11 -273 -29 -413 -30 -60 -1 -137 -5 -170 -10 -33 -4
-66 -6 -72 -4 -23 9 -14 23 13 23 21 0 24 3 15 14 -9 11 26 15 207 25 119 7
307 19 417 26 110 8 223 12 250 10 28 -2 42 -2 33 1 -36 11 -16 22 40 23 33 0
171 5 308 11 137 5 366 14 509 20 143 5 288 12 323 15 39 3 60 1 57 -5 -12
-20 26 -9 72 20 47 30 53 33 53 26z m1016 -33 c-11 -11 -19 6 -11 24 8 17 8
17 12 0 3 -10 2 -21 -1 -24z m47 30 c2 -5 1 -18 -2 -30 -4 -16 -10 -20 -20
-14 -8 5 -11 16 -6 30 6 21 20 28 28 14z m717 -23 c0 -17 -39 -32 -58 -21 -18
10 -13 14 33 24 11 3 21 5 23 6 1 0 2 -3 2 -9z m-90 -10 c-20 -13 -33 -13 -25
0 3 6 14 10 23 10 15 0 15 -2 2 -10z m-135 -9 c-29 -12 -118 -20 -108 -11 9 9
50 16 98 18 25 1 26 -1 10 -7z m-527 -27 c7 4 12 2 12 -3 0 -6 -6 -11 -13 -11
-15 0 -37 20 -37 34 0 5 6 2 13 -9 8 -10 19 -15 25 -11z m702 12 c0 -3 -4 -8
-10 -11 -5 -3 -10 -1 -10 4 0 6 5 11 10 11 6 0 10 -2 10 -4z m-755 -26 c-3 -5
-10 -10 -16 -10 -5 0 -9 5 -9 10 0 6 7 10 16 10 8 0 12 -4 9 -10z m-3303 -80
c-4 -42 -17 -59 -34 -42 -15 15 1 82 21 82 13 0 16 -8 13 -40z m2340 -25 l-91
-65 -68 1 -68 2 71 6 c65 7 76 11 149 64 44 31 84 57 89 57 5 0 -32 -29 -82
-65z m-1366 19 c50 -24 74 -63 74 -121 0 -38 -5 -55 -21 -68 -20 -19 -20 -19
-10 9 24 61 5 128 -43 160 -33 21 -33 21 -69 -16 -63 -68 -107 -131 -107 -154
0 -24 1 -24 103 -24 92 -1 100 -2 83 -15 -17 -13 -18 -15 -3 -15 9 0 17 -4 17
-10 0 -5 -2 -10 -4 -10 -2 0 -11 -3 -20 -6 -10 -4 -16 -1 -16 9 0 13 -14 15
-95 10 -89 -6 -96 -5 -114 16 -10 12 -17 30 -14 40 3 10 34 55 69 100 35 44
64 84 64 87 0 14 -94 -7 -127 -27 -49 -31 -68 -54 -82 -99 -17 -57 -5 -105 36
-145 47 -46 114 -55 198 -27 69 24 87 20 29 -5 -58 -25 -161 -28 -204 -6 -51
26 -80 76 -80 135 0 79 43 138 130 177 56 26 157 28 206 5z m3674 -44 c-23
-18 -50 -26 -50 -15 0 6 53 34 65 34 6 0 -1 -8 -15 -19z m-969 -42 c-10 -3
-52 -10 -92 -13 -41 -4 -207 -20 -369 -35 -162 -16 -394 -38 -515 -49 -121
-12 -241 -23 -267 -27 -28 -3 -48 -2 -48 3 0 6 15 10 33 11 30 1 227 21 577
58 80 8 192 20 250 25 58 6 108 16 112 22 5 8 46 12 128 11 66 -1 120 2 120 6
0 14 33 16 63 6 24 -9 25 -11 8 -18z m-591 18 c0 -3 -4 -8 -10 -11 -5 -3 -10
-1 -10 4 0 6 5 11 10 11 6 0 10 -2 10 -4z m773 -3 c-7 -2 -19 -2 -25 0 -7 3
-2 5 12 5 14 0 19 -2 13 -5z m-3867 -20 c-4 -9 -10 -37 -13 -61 -5 -37 -9 -43
-27 -40 -14 2 -20 9 -19 23 3 23 11 89 12 93 1 1 13 2 27 2 21 0 25 -4 20 -17z
m3022 11 c-4 -3 -72 -13 -150 -20 -79 -8 -162 -16 -185 -20 -36 -5 -43 -4 -43
10 0 10 4 15 9 12 4 -3 36 0 70 7 67 14 310 23 299 11z m155 -21 c-7 -2 -19
-2 -25 0 -7 3 -2 5 12 5 14 0 19 -2 13 -5z m4097 -15 c81 -2 99 -8 100 -34 0
-20 -37 -23 -140 -12 -76 9 -100 15 -100 26 0 11 -8 13 -35 8 -40 -8 -65 1
-44 16 8 5 41 6 74 3 33 -2 98 -6 145 -7z m-3640 -18 c-30 -5 -75 -8 -100 -7
-45 0 -45 0 10 7 30 4 75 7 100 7 44 0 44 0 -10 -7z m-1451 -3 c-2 -1 -13 -9
-24 -17 -19 -14 -19 -14 -6 3 7 9 18 17 24 17 6 0 8 -1 6 -3z m1279 -14 c-10
-2 -26 -2 -35 0 -10 3 -2 5 17 5 19 0 27 -2 18 -5z m4890 -7 c63 -6 102 -19
102 -35 0 -5 -49 -8 -110 -7 -89 1 -110 4 -110 15 0 12 -3 12 -12 3 -15 -15
-55 -16 -63 -1 -4 6 -5 13 -2 16 10 10 71 20 102 17 17 -2 58 -6 93 -8z
m-4981 -2 c-3 -3 -12 -4 -19 -1 -8 3 -5 6 6 6 11 1 17 -2 13 -5z m-84 -11 c-7
-2 -19 -2 -25 0 -7 3 -2 5 12 5 14 0 19 -2 13 -5z m-3643 -7 c0 -3 -4 -8 -10
-11 -5 -3 -10 -1 -10 4 0 6 5 11 10 11 6 0 10 -2 10 -4z m3490 -6 c-8 -5 -22
-10 -30 -10 -13 0 -13 1 0 10 8 5 22 10 30 10 13 0 13 -1 0 -10z m63 3 c-7 -2
-19 -2 -25 0 -7 3 -2 5 12 5 14 0 19 -2 13 -5z m-136 -9 c-3 -3 -12 -4 -19 -1
-8 3 -5 6 6 6 11 1 17 -2 13 -5z m-687 -74 c0 -5 -2 -10 -4 -10 -3 0 -8 5 -11
10 -3 6 -1 10 4 10 6 0 11 -4 11 -10z m1185 -21 c-115 -11 -440 -29 -494 -28
-45 2 -45 2 14 10 33 4 137 11 230 14 94 4 172 9 174 11 2 2 38 3 80 3 l76 -2
-80 -8z m-3725 -30 c16 -10 -81 -3 -180 12 -39 6 -24 7 55 3 60 -3 117 -10
125 -15z m2220 -128 c30 -1 69 -4 85 -8 28 -5 28 -6 9 -14 -19 -7 -21 -12 -14
-51 5 -23 6 -46 4 -50 -3 -5 24 -8 60 -8 36 0 66 3 66 8 -1 4 -7 18 -15 32 -8
14 -14 30 -14 35 0 6 12 -12 27 -40 l27 -50 -125 -6 c-69 -4 -210 -12 -315
-18 -378 -22 -990 -42 -1471 -48 l-492 -6 5 26 c3 15 9 24 14 22 4 -3 291 3
636 14 1415 46 1453 47 1453 61 0 4 -9 28 -21 54 -22 50 -18 71 9 58 9 -5 42
-10 72 -11z m164 -9 c3 -5 -1 -9 -9 -9 -8 0 -12 4 -9 9 3 4 7 8 9 8 2 0 6 -4
9 -8z m-2309 -59 c-25 -7 -30 -14 -56 -90 -15 -45 -26 -63 -38 -63 -23 0 -33
10 -23 24 7 9 33 78 48 124 2 7 20 12 46 11 24 -1 34 -4 23 -6z m3050 -143 c3
-5 2 -10 -4 -10 -5 0 -13 5 -16 10 -3 6 -2 10 4 10 5 0 13 -4 16 -10z m-869
-14 c4 -11 31 -13 125 -11 l120 2 35 -68 c19 -38 34 -71 34 -74 0 -3 -57 -6
-127 -5 -71 0 -211 -4 -313 -10 -553 -29 -2162 -53 -2115 -31 17 8 18 10 3 10
-10 1 -18 7 -18 14 0 9 35 13 133 14 1397 26 2111 44 2122 55 4 3 -3 27 -14
53 -11 26 -18 51 -15 56 8 13 24 11 30 -5z m1041 8 c-3 -3 -12 -4 -19 -1 -8 3
-5 6 6 6 11 1 17 -2 13 -5z m131 -11 c-10 -2 -26 -2 -35 0 -10 3 -2 5 17 5 19
0 27 -2 18 -5z m141 -3 c62 0 72 -2 62 -14 -10 -11 -8 -15 6 -20 10 -3 -15 -3
-55 -1 -48 4 -71 2 -67 -5 3 -5 16 -10 28 -10 12 0 46 -7 75 -14 28 -8 50 -10
46 -5 -11 18 25 20 110 5 92 -16 106 -21 106 -37 0 -7 -16 -9 -42 -5 l-43 6
35 -14 c19 -8 45 -15 58 -15 12 -1 22 -5 22 -10 0 -9 -31 -4 -150 24 -163 37
-253 55 -260 50 -4 -2 -40 5 -80 16 -76 21 -97 19 -64 -6 10 -8 15 -15 11 -15
-14 0 -52 22 -59 35 -5 7 -23 13 -40 14 -18 1 -51 5 -73 10 -27 6 10 7 113 4
119 -3 152 -1 146 8 -5 9 0 10 17 6 13 -4 57 -7 98 -7z m179 -17 c-16 -2 -40
-2 -55 0 -16 2 -3 4 27 4 30 0 43 -2 28 -4z m75 -10 c-7 -2 -21 -2 -30 0 -10
3 -4 5 12 5 17 0 24 -2 18 -5z m-3803 -23 c0 -5 -11 -10 -24 -10 -21 0 -27 -9
-45 -70 -19 -63 -35 -82 -53 -64 -8 7 34 137 47 146 15 11 75 9 75 -2z m3928
-53 c2 -9 23 -37 48 -62 30 -31 47 -60 53 -88 11 -44 7 -64 -4 -25 -11 40 -28
68 -41 68 -13 0 -5 -43 12 -72 4 -7 9 -25 11 -42 2 -16 7 -34 12 -40 5 -6 12
-27 16 -46 10 -52 33 -118 61 -177 13 -28 24 -59 24 -68 0 -9 4 -25 10 -35 9
-17 70 -294 70 -319 0 -6 -15 3 -32 22 -18 18 -48 44 -66 58 -25 19 -36 40
-52 94 -10 39 -51 164 -90 278 -38 115 -67 213 -64 218 3 5 -2 9 -11 9 -12 0
-15 -5 -10 -17 3 -10 31 -99 61 -198 30 -99 59 -191 65 -204 5 -13 8 -25 6
-28 -11 -10 -39 58 -100 240 -64 189 -66 199 -51 223 l16 24 24 -25 c13 -14
32 -25 43 -25 25 0 49 39 31 50 -7 4 -9 13 -6 19 4 6 0 19 -9 28 -13 12 -14
18 -4 24 9 5 8 14 -7 36 -15 23 -43 87 -44 101 0 12 26 -8 28 -21z m91 -46 c0
-14 -1 -14 -6 -1 -3 8 -10 24 -15 35 -9 20 -9 20 6 1 9 -11 16 -27 15 -35z
m-144 -11 c3 -5 1 -10 -4 -10 -6 0 -11 5 -11 10 0 6 2 10 4 10 3 0 8 -4 11
-10z m-91 -21 c19 -18 -1 -17 -39 2 l-40 19 35 -6 c19 -3 39 -10 44 -15z m136
9 c0 -7 -12 -21 -26 -32 -22 -15 -28 -16 -35 -5 -14 23 -10 31 11 24 13 -4 22
-1 26 9 7 19 24 21 24 4z m-1590 -50 c0 -10 29 -12 126 -8 144 6 132 12 178
-91 l24 -56 -226 -7 c-125 -4 -339 -11 -477 -16 -137 -6 -612 -13 -1055 -16
-755 -6 -1022 -2 -960 17 16 4 19 7 8 8 -10 1 -18 5 -18 9 0 5 289 12 643 15
616 7 1759 27 1765 32 1 1 -7 23 -18 49 -24 57 -25 76 -5 76 8 0 15 -6 15 -12z
m1484 -17 c16 -9 32 -23 34 -31 4 -12 2 -12 -14 1 -10 9 -37 26 -59 38 -25 14
-31 19 -15 15 14 -3 38 -14 54 -23z m-3864 -20 c0 -6 -14 -11 -32 -13 -33 -3
-35 -6 -58 -95 -8 -33 -16 -43 -31 -43 -14 0 -19 5 -16 14 3 8 11 34 17 57 24
87 25 89 75 89 25 0 45 -4 45 -9z m2465 -193 c4 -10 40 -12 143 -10 l138 3 32
-78 c18 -43 32 -80 32 -83 0 -3 -66 -5 -147 -5 -82 0 -409 -6 -728 -14 -398
-9 -787 -12 -1240 -7 -654 6 -790 11 -750 27 17 6 17 8 3 8 -10 1 -18 6 -18
11 0 7 355 10 1043 11 990 1 1496 5 1504 12 2 2 -6 30 -17 62 -11 32 -20 62
-20 67 0 13 20 9 25 -4z m-2518 -20 c-2 -8 -17 -12 -35 -10 -33 3 -38 -6 -58
-107 -6 -31 -28 -51 -41 -38 -8 9 28 151 41 159 20 13 98 9 93 -4z m5358 -27
c-14 -6 -23 -24 -32 -67 l-11 -59 0 60 c1 73 2 75 36 74 23 0 24 -1 7 -8z m98
2 c-7 -2 -21 -2 -30 0 -10 3 -4 5 12 5 17 0 24 -2 18 -5z m-156 -9 c-3 -3 -12
-4 -19 -1 -8 3 -5 6 6 6 11 1 17 -2 13 -5z m206 -1 c-7 -2 -13 -21 -13 -40 0
-44 -5 -40 -13 10 -5 33 -4 37 16 36 12 0 16 -3 10 -6z m-306 -29 c-25 -13
-27 -19 -22 -46 10 -44 80 -255 100 -303 10 -22 20 -60 24 -85 l6 -45 45 -3
c41 -3 47 -7 62 -40 22 -45 15 -54 -13 -18 -19 24 -27 27 -56 21 -19 -3 -33
-2 -30 2 3 5 2 15 -4 23 -7 12 -9 11 -9 -5 0 -11 -15 14 -34 55 -19 41 -66
144 -105 229 -40 84 -70 160 -67 168 3 8 29 25 58 38 59 27 88 33 45 9z m448
-11 c23 -8 53 -24 67 -36 l26 -22 -57 -141 c-31 -78 -64 -164 -74 -192 -9 -27
-25 -60 -35 -72 -17 -21 -17 -20 -16 32 0 29 6 71 12 94 7 22 23 94 37 160 13
65 27 129 31 141 5 18 -1 25 -33 43 -21 12 -29 18 -18 14 11 -4 38 -13 60 -21z
m-5600 -13 c3 -5 1 -10 -4 -10 -6 0 -11 5 -11 10 0 6 2 10 4 10 3 0 8 -4 11
-10z m4970 -94 c-30 -30 -55 -63 -55 -73 1 -10 44 -72 96 -138 53 -66 107
-139 122 -162 15 -23 32 -41 37 -39 6 2 10 -15 10 -40 l0 -42 -29 36 c-16 20
-92 100 -168 177 -106 107 -137 144 -132 158 6 21 154 177 167 177 4 0 -17
-24 -48 -54z m756 17 c13 -16 12 -17 -3 -4 -10 7 -18 15 -18 17 0 8 8 3 21
-13z m-274 -25 c-3 -8 -6 -5 -6 6 -1 11 2 17 5 13 3 -3 4 -12 1 -19z m2053 -8
c53 -6 77 -5 82 3 4 7 9 5 14 -8 4 -11 17 -45 30 -75 l24 -55 -7 45 c-3 25
-10 55 -14 68 -5 12 -5 22 0 22 5 0 12 -12 16 -27 4 -16 10 -22 12 -15 3 6 12
12 21 13 11 0 12 2 4 6 -6 2 -10 8 -7 13 6 10 85 1 101 -11 5 -4 21 -5 34 -2
14 4 21 2 17 -4 -4 -6 12 -13 40 -17 77 -10 120 -7 127 9 13 34 82 16 200 -52
12 -7 43 -22 70 -34 26 -11 44 -24 40 -28 -5 -4 -389 -5 -854 -2 -523 4 -819
9 -777 14 42 5 67 13 67 21 0 19 139 45 275 52 66 4 125 10 130 14 6 5 21 10
35 13 14 2 -29 5 -95 6 -66 0 -138 6 -160 13 l-40 12 30 7 c40 10 491 9 585
-1z m-7973 -42 c-3 -7 -5 -2 -5 12 0 14 2 19 5 13 2 -7 2 -19 0 -25z m378 23
c3 -6 -14 -11 -37 -13 -41 -3 -42 -4 -53 -48 -14 -56 -42 -64 -37 -11 8 71 16
81 71 81 27 0 52 -4 56 -9z m6849 -8 c8 -20 -17 -44 -65 -60 -45 -16 -59 -16
-59 0 0 15 47 62 70 70 28 10 48 7 54 -10z m-4041 -3 l137 0 0 -25 c0 -14 -8
-29 -20 -35 -26 -14 -217 -52 -242 -48 -14 2 -26 19 -39 53 -24 64 -24 69 4
61 12 -3 84 -6 160 -6z m6061 -37 c7 -45 16 -83 52 -226 8 -31 12 -62 8 -69
-4 -6 -12 7 -19 33 -71 262 -79 309 -55 309 4 0 11 -21 14 -47z m196 32 c10
-13 11 -30 2 -83 -7 -37 -16 -105 -22 -152 -9 -80 -27 -151 -43 -166 -10 -11
-8 -34 2 -34 29 0 100 184 106 274 3 41 20 43 35 6 11 -27 10 -37 -13 -88 -26
-59 -40 -100 -41 -117 -2 -19 -29 -60 -73 -109 -33 -37 -42 -54 -37 -70 3 -12
-7 -3 -24 20 l-30 41 47 93 46 93 2 134 c3 169 10 197 43 158z m-3104 -72 l27
-35 -65 -66 c-111 -115 -157 -172 -151 -188 3 -9 -1 -14 -12 -14 -9 0 -38 -17
-63 -37 -45 -36 -46 -36 -18 -5 39 42 29 50 -15 12 -19 -16 -38 -29 -42 -30
-4 0 8 14 28 31 36 32 238 320 249 357 9 27 28 20 62 -25z m-1051 -72 c-21
-43 -29 -39 -8 4 9 19 18 33 21 31 2 -2 -4 -18 -13 -35z m3934 -115 c62 -143
63 -185 2 -66 -24 47 -50 94 -57 105 -15 20 -19 67 -7 78 8 9 3 19 62 -117z
m-3272 52 c-3 -8 -6 -5 -6 6 -1 11 2 17 5 13 3 -3 4 -12 1 -19z m-2007 2 c-79
-11 -300 -12 -300 -1 0 5 76 9 178 9 126 0 161 -3 122 -8z m-3917 -7 c-7 -2
-21 -2 -30 0 -10 3 -4 5 12 5 17 0 24 -2 18 -5z m80 -10 c-7 -2 -21 -2 -30 0
-10 3 -4 5 12 5 17 0 24 -2 18 -5z m4402 -2 c10 -17 -12 -21 -25 -6 -10 12
-10 15 3 15 9 0 18 -4 22 -9z m-648 -15 c4 -8 28 -16 53 -19 25 -2 -67 -4
-204 -5 -137 -1 -246 1 -242 5 3 4 82 6 175 5 144 -2 169 0 174 13 8 19 33 20
44 1z m1405 -46 c13 -5 49 -17 81 -26 86 -23 64 -26 -26 -3 -43 11 -82 17 -87
14 -6 -4 -10 1 -10 9 0 18 10 20 42 6z m1178 -9 c0 -5 -15 -12 -32 -16 -18 -4
-79 -18 -136 -32 -57 -14 -105 -23 -108 -20 -3 3 46 17 108 32 62 15 120 31
128 36 20 11 40 11 40 0z m3115 -31 c-3 -5 -11 -10 -16 -10 -6 0 -7 5 -4 10 3
6 11 10 16 10 6 0 7 -4 4 -10z m-8260 -11 l150 -2 -125 -8 c-144 -9 -198 -6
-214 12 -8 9 -5 10 14 5 14 -3 93 -6 175 -7z m645 7 c0 -3 -4 -8 -10 -11 -5
-3 -10 -1 -10 4 0 6 5 11 10 11 6 0 10 -2 10 -4z m7357 -38 c-3 -8 -6 -5 -6 6
-1 11 2 17 5 13 3 -3 4 -12 1 -19z m213 12 c-8 -5 -19 -10 -25 -10 -5 0 -3 5
5 10 8 5 20 10 25 10 6 0 3 -5 -5 -10z m-4750 -20 c0 -13 -7 -20 -20 -20 -19
0 -27 20 -13 33 13 14 33 6 33 -13z m-1915 0 c3 -6 -1 -7 -9 -4 -18 7 -21 14
-7 14 6 0 13 -4 16 -10z m3165 0 c0 -5 -4 -10 -9 -10 -6 0 -13 5 -16 10 -3 6
1 10 9 10 9 0 16 -4 16 -10z m3274 -65 c-5 -18 1 -35 21 -61 15 -19 24 -42 21
-49 -3 -9 1 -15 9 -15 9 0 15 -9 15 -21 0 -17 -3 -19 -14 -10 -11 9 -15 9 -18
-1 -3 -8 -12 -5 -28 10 -23 21 -23 22 -5 42 14 16 16 23 7 32 -9 9 -12 8 -12
-4 0 -9 -4 -20 -10 -23 -6 -4 -10 18 -10 59 0 52 3 66 15 66 11 0 14 -7 9 -25z
m-3178 -30 c-21 -16 -32 -13 -21 4 3 6 14 11 23 11 15 -1 15 -2 -2 -15z m3474
6 c0 -5 -13 -19 -29 -30 -16 -12 -43 -44 -60 -71 -29 -46 -33 -49 -63 -44 -51
9 -60 13 -53 24 4 6 10 8 14 6 23 -15 80 17 121 68 41 51 70 70 70 47z m-4308
-43 c56 -37 98 -60 225 -122 33 -16 29 -30 -11 -40 -29 -8 -39 -6 -49 6 -6 9
-51 39 -99 68 -48 28 -96 59 -107 68 -17 15 -39 62 -28 62 2 0 33 -19 69 -42z
m558 25 c30 18 30 18 70 -10 30 -22 38 -32 33 -48 -9 -28 -5 -62 9 -93 12 -24
22 -27 133 -44 135 -20 288 -36 385 -41 l65 -3 3 -43 c2 -24 0 -47 -5 -51 -4
-5 -69 7 -143 26 -168 42 -295 65 -315 58 -21 -8 -19 -24 4 -24 12 0 20 -9 24
-28 4 -21 21 -37 64 -63 102 -63 247 -151 285 -176 l38 -23 -17 -43 c-9 -23
-17 -43 -19 -45 -1 -2 -55 43 -121 99 -134 116 -180 147 -311 213 l-93 47 -29
-30 c-32 -32 -32 -31 4 -116 7 -16 21 -49 31 -71 9 -23 34 -67 54 -97 62 -94
215 -286 228 -287 7 0 24 15 40 34 22 29 30 33 46 24 18 -9 17 -12 -19 -49
-21 -21 -41 -39 -45 -39 -25 0 -101 68 -172 154 -63 77 -83 96 -85 81 -3 -20
62 -293 72 -302 3 -3 30 8 59 25 45 25 58 29 71 19 15 -11 7 -17 -53 -50 -38
-21 -71 -42 -73 -46 -2 -5 -19 -12 -39 -16 l-36 -7 -7 49 c-3 26 -16 126 -27
221 -19 167 -38 243 -74 298 -9 14 -20 22 -25 19 -4 -3 -8 -39 -9 -80 0 -42
-5 -115 -11 -163 -6 -48 -11 -134 -13 -191 l-2 -105 52 3 c56 3 93 -11 93 -35
0 -13 -13 -15 -74 -13 -40 1 -77 0 -82 -3 -13 -8 -79 16 -77 28 1 5 18 99 39
209 l37 200 -18 135 c-18 146 -26 169 -56 188 -18 12 -27 6 -92 -60 -40 -40
-115 -108 -167 -151 -152 -123 -164 -136 -147 -150 23 -18 87 -120 87 -137 -1
-19 -40 27 -77 90 -15 25 -34 53 -43 63 -18 19 -25 38 -65 181 -28 98 -29 106
-16 106 5 0 12 -19 16 -42 4 -24 16 -64 26 -90 10 -27 16 -48 12 -48 -3 0 -4
-3 0 -6 8 -8 293 170 335 209 17 17 32 41 32 53 0 24 -24 49 -38 40 -10 -6
-346 -86 -349 -83 -1 1 -3 24 -5 51 -4 56 -17 51 147 60 153 9 246 25 271 45
34 27 46 59 39 101 -6 34 -3 40 26 63 30 24 33 24 60 8 26 -15 30 -15 59 2z
m660 7 c0 -5 -9 -14 -20 -20 -11 -6 -19 -15 -17 -21 1 -6 -47 -40 -108 -75
-60 -34 -116 -68 -123 -74 -14 -13 -108 -4 -117 10 -5 8 54 40 77 40 7 0 33
12 58 26 25 14 68 34 95 45 28 10 71 32 95 48 49 32 60 36 60 21z m-363 -37
c-3 -10 -5 -4 -5 12 0 17 2 24 5 18 2 -7 2 -21 0 -30z m3063 -18 c0 -19 -4
-35 -10 -35 -5 0 -10 16 -10 35 0 19 5 35 10 35 6 0 10 -16 10 -35z m-56 9 c3
-8 2 -12 -4 -9 -6 3 -10 10 -10 16 0 14 7 11 14 -7z m-3564 3 c0 -2 -7 -18
-16 -36 -15 -29 -14 -34 1 -57 22 -34 16 -37 -16 -10 -25 22 -26 26 -16 65 8
29 16 41 29 41 10 0 18 -2 18 -3z m456 -24 c3 -16 9 -37 14 -49 5 -14 2 -28
-11 -45 -20 -26 -26 -11 -9 21 8 14 6 30 -5 56 -18 43 -18 44 -5 44 5 0 12
-12 16 -27z m80 -30 c-11 -11 -19 6 -11 24 8 17 8 17 12 0 3 -10 2 -21 -1 -24z
m3134 33 c0 -3 -4 -8 -10 -11 -5 -3 -10 -1 -10 4 0 6 5 11 10 11 6 0 10 -2 10
-4z m-3275 -36 c3 -5 1 -10 -4 -10 -6 0 -11 5 -11 10 0 6 2 10 4 10 3 0 8 -4
11 -10z m2790 -4 c12 -9 16 -20 12 -36 -4 -14 3 -41 19 -72 32 -63 24 -74 -12
-16 -15 23 -40 59 -56 78 -37 46 -37 49 13 59 3 0 13 -5 24 -13z m520 -63 c20
-7 45 -61 38 -81 -5 -15 -4 -15 13 1 16 15 17 19 5 26 -12 8 -12 12 3 26 9 10
15 24 12 32 -9 21 18 26 81 14 32 -6 86 -17 121 -23 61 -12 62 -13 62 -45 0
-18 -2 -33 -5 -33 -3 0 -28 11 -55 24 -28 13 -68 27 -90 31 -36 6 -40 5 -40
-13 0 -11 15 -33 34 -49 19 -15 48 -47 65 -71 41 -56 54 -54 49 8 -2 32 1 50
8 50 7 0 11 -25 11 -67 0 -38 4 -84 8 -104 13 -65 -10 -50 -61 38 -42 73 -58
92 -114 129 -41 28 -68 40 -74 34 -6 -6 -3 -17 10 -31 10 -13 14 -19 7 -16
-23 14 -23 -13 0 -60 39 -76 55 -132 61 -216 10 -134 16 -159 37 -154 26 7 34
-10 16 -31 -8 -9 -17 -29 -21 -44 -3 -16 -10 -28 -15 -28 -12 0 -19 44 -31
198 -11 131 -41 252 -63 252 -8 0 -7 -8 10 -62 5 -17 7 -276 3 -390 0 -4 -6
-5 -14 -2 -21 8 -34 54 -25 86 4 15 10 85 14 156 6 108 5 138 -10 188 -34 115
-43 163 -31 167 6 2 8 8 3 12 -17 19 -33 -27 -27 -80 4 -37 2 -51 -6 -48 -10
4 -51 -61 -75 -119 -15 -38 -25 -35 -32 9 -6 33 -1 43 43 101 42 54 50 71 50
107 l0 43 -57 -28 c-64 -30 -71 -27 -72 33 -1 22 3 27 23 27 14 0 27 4 30 8 3
5 19 7 36 4 25 -3 30 -1 30 15 0 31 15 38 18 8 2 -14 10 -29 17 -32z m59 11
c4 -10 1 -14 -6 -12 -15 5 -23 28 -10 28 5 0 13 -7 16 -16z m-2823 -72 c-7 -2
-18 1 -23 6 -8 8 -4 9 13 5 13 -4 18 -8 10 -11z m2716 -34 c-3 -8 -6 -5 -6 6
-1 11 2 17 5 13 3 -3 4 -12 1 -19z m-3657 -62 c0 -3 -4 -8 -10 -11 -5 -3 -10
-1 -10 4 0 6 5 11 10 11 6 0 10 -2 10 -4z m3143 -3 c-13 -2 -33 -2 -45 0 -13
2 -3 4 22 4 25 0 35 -2 23 -4z m-830 -20 c-23 -2 -64 -2 -90 0 -26 2 -7 3 42
3 50 0 71 -1 48 -3z m-1978 -23 c3 -5 1 -10 -4 -10 -6 0 -11 5 -11 10 0 6 2
10 4 10 3 0 8 -4 11 -10z m602 -4 c4 -3 -29 -151 -35 -163 -5 -9 -11 -8 -24 1
-17 13 -17 17 -1 95 16 74 19 80 38 75 11 -4 21 -7 22 -8z m2781 -78 c9 -57 7
-80 -12 -164 -12 -54 -26 -93 -30 -86 -4 7 0 40 9 74 19 72 22 180 6 221 -6
16 -8 33 -5 39 11 17 21 -10 32 -84z m-3338 18 c0 -2 -8 -10 -17 -17 -16 -13
-17 -12 -4 4 13 16 21 21 21 13z m-230 -28 c0 -7 -12 -18 -26 -25 -23 -11 -24
-10 -12 5 12 16 30 31 36 32 1 0 2 -6 2 -12z m2650 -40 c10 -39 73 -241 87
-278 3 -8 -2 -6 -10 5 -15 20 -27 20 -871 20 -767 0 -856 2 -856 16 0 8 4 19
9 25 5 5 19 53 31 107 18 83 25 98 43 101 12 3 184 8 382 11 198 4 486 13 640
20 154 7 337 13 407 14 l127 1 11 -42z m1193 -45 c-3 -24 -10 -43 -14 -43 -10
0 -12 60 -3 85 12 29 23 1 17 -42z m-4064 -32 c-12 -34 -23 -60 -25 -58 -2 2
6 32 17 66 12 34 23 60 25 58 2 -2 -6 -32 -17 -66z m-2211 31 c48 -20 166 -29
431 -34 98 -2 104 -1 123 22 17 21 31 24 121 31 56 4 173 8 259 8 l156 1 22
-67 c24 -74 39 -110 76 -190 13 -29 19 -53 14 -53 -6 0 -10 4 -10 10 0 6 -72
8 -202 5 -112 -3 -331 -7 -488 -10 -157 -3 -422 -15 -590 -25 -168 -11 -371
-20 -451 -20 -149 0 -438 16 -497 28 l-32 7 40 54 c23 30 62 98 88 152 l46 98
254 -1 c139 0 255 1 257 3 2 2 78 3 170 2 141 -1 174 -4 213 -21z m2451 -70
c1 -23 -15 -59 -52 -120 -84 -137 -101 -162 -114 -162 -6 0 -20 -11 -31 -24
l-19 -25 -49 44 c-33 29 -46 47 -39 54 7 7 24 -2 54 -30 40 -38 44 -39 57 -22
22 30 132 256 140 288 4 17 14 38 22 48 16 18 17 18 23 0 4 -10 8 -33 8 -51z
m3791 -26 c0 -21 -11 -46 -20 -46 -12 0 -23 37 -15 50 9 15 35 12 35 -4z
m-3113 -32 c2 -5 -16 -40 -39 -77 -42 -65 -43 -65 -55 -41 -6 13 -8 24 -5 24
4 0 20 25 37 55 27 52 53 67 62 39z m-107 -134 c0 -5 -2 -10 -4 -10 -3 0 -8 5
-11 10 -3 6 -1 10 4 10 6 0 11 -4 11 -10z m-4090 -44 c0 -2 -8 -10 -17 -17
-16 -13 -17 -12 -4 4 13 16 21 21 21 13z m3417 -123 c48 -25 71 -49 59 -60 -3
-4 -123 52 -135 63 -5 4 9 24 17 24 4 0 30 -12 59 -27z"/>
<path d="M8879 6539 c16 -6 28 -6 35 1 7 7 -1 10 -24 9 -33 0 -34 -1 -11 -10z"/>
<path d="M8478 6043 c12 -2 30 -2 40 0 9 3 -1 5 -23 4 -22 0 -30 -2 -17 -4z"/>
<path d="M9409 5825 c5 -11 17 -29 26 -40 l16 -20 -10 20 c-5 11 -17 29 -26
40 l-16 20 10 -20z"/>
<path d="M10482 5699 c112 -136 121 -146 112 -129 -26 51 -171 230 -185 230
-6 0 27 -45 73 -101z"/>
<path d="M5200 6070 c-9 -6 -10 -10 -3 -10 6 0 15 5 18 10 8 12 4 12 -15 0z"/>
<path d="M5143 6046 c-36 -13 -53 -26 -34 -26 14 0 71 28 71 35 0 3 -1 4 -2 4
-2 -1 -17 -7 -35 -13z"/>
<path d="M6429 5973 c-13 -16 -12 -17 4 -4 9 7 17 15 17 17 0 8 -8 3 -21 -13z"/>
<path d="M6275 5716 c-11 -7 -24 -14 -30 -14 -5 0 -11 -5 -13 -11 -5 -16 45
-13 51 3 4 10 18 13 49 9 40 -4 42 -3 24 11 -24 20 -55 20 -81 2z"/>
<path d="M5047 5817 c-16 -40 -2 -77 23 -62 7 4 8 11 1 18 -5 7 -11 23 -13 37
-3 22 -4 22 -11 7z"/>
<path d="M5132 5819 c2 -6 8 -10 13 -10 5 0 11 4 13 10 2 6 -4 11 -13 11 -9 0
-15 -5 -13 -11z"/>
<path d="M4986 5801 c-9 -13 15 -51 32 -51 12 0 9 7 -24 58 -1 2 -5 -1 -8 -7z"/>
<path d="M1622 3970 c0 -14 2 -19 5 -12 2 6 2 18 0 25 -3 6 -5 1 -5 -13z"/>
<path d="M5977 5913 c-4 -3 -7 -11 -7 -17 0 -6 5 -5 12 2 6 6 9 14 7 17 -3 3
-9 2 -12 -2z"/>
<path d="M4278 5823 c7 -3 16 -2 19 1 4 3 -2 6 -13 5 -11 0 -14 -3 -6 -6z"/>
<path d="M4210 5411 c0 -5 5 -13 10 -16 6 -4 8 -11 5 -16 -4 -5 1 -9 10 -9 12
0 14 4 5 19 -12 23 -30 36 -30 22z"/>
<path d="M2764 5381 c7 -11 46 -35 46 -28 0 3 -12 12 -26 22 -15 9 -23 12 -20
6z"/>
<path d="M3420 5330 c-16 -5 6 -8 62 -9 48 -1 90 3 93 9 7 11 -117 11 -155 0z"/>
<path d="M3160 5315 c-137 -13 -103 -19 53 -8 53 3 97 10 97 15 0 4 -6 7 -12
7 -7 -1 -69 -7 -138 -14z"/>
<path d="M2908 5293 c12 -2 30 -2 40 0 9 3 -1 5 -23 4 -22 0 -30 -2 -17 -4z"/>
<path d="M3955 5130 c-77 -6 -76 -6 43 -8 76 -1 122 2 122 8 0 10 -33 10 -165
0z"/>
<path d="M4211 5005 c0 -5 6 -21 14 -35 8 -14 14 -20 14 -15 0 6 -6 21 -14 35
-8 14 -14 21 -14 15z"/>
<path d="M4240 4931 c0 -6 4 -13 10 -16 6 -3 7 1 4 9 -7 18 -14 21 -14 7z"/>
<path d="M4030 4910 c-80 -4 -181 -9 -225 -10 -44 -1 -71 -5 -60 -7 32 -9 465
9 465 18 0 5 -8 8 -17 7 -10 -1 -83 -5 -163 -8z"/>
<path d="M5698 4943 c7 -3 16 -2 19 1 4 3 -2 6 -13 5 -11 0 -14 -3 -6 -6z"/>
<path d="M5925 4576 c48 -117 71 -160 59 -111 -4 17 -8 44 -8 62 -1 17 -4 29
-8 27 -10 -7 -21 60 -14 88 3 12 3 18 0 11 -4 -8 -11 -6 -25 8 -10 10 -25 19
-33 19 -10 0 -3 -28 29 -104z"/>
<path d="M5961 4594 c0 -11 3 -14 6 -6 3 7 2 16 -1 19 -3 4 -6 -2 -5 -13z"/>
<path d="M4301 4785 c0 -5 9 -28 20 -50 10 -22 16 -29 13 -15 -7 28 -33 80
-33 65z"/>
<path d="M4220 4682 c-41 -2 -183 -7 -315 -11 l-240 -8 323 0 c277 0 350 4
315 19 -5 2 -42 2 -83 0z"/>
<path d="M3483 4653 c31 -2 83 -2 115 0 31 2 5 3 -58 3 -63 0 -89 -1 -57 -3z"/>
<path d="M3505 4424 l-550 -12 475 4 c261 2 586 4 723 4 158 0 247 4 247 10 0
12 -140 11 -895 -6z"/>
<path d="M9120 4340 c0 -5 14 -10 30 -10 17 0 30 5 30 10 0 6 -13 10 -30 10
-16 0 -30 -4 -30 -10z"/>
<path d="M9318 4333 c12 -2 32 -2 45 0 12 2 2 4 -23 4 -25 0 -35 -2 -22 -4z"/>
<path d="M7250 3820 c0 -6 15 -20 34 -31 49 -29 70 -64 58 -98 -6 -17 -6 -34
-1 -44 13 -22 -12 -69 -45 -87 -55 -29 -126 34 -126 110 0 25 -5 40 -16 44
-24 9 -24 9 -24 -41 0 -82 56 -152 121 -153 123 -1 163 196 59 284 -32 27 -60
34 -60 16z"/>
<path d="M7215 3770 c-4 -7 3 -8 22 -4 38 9 42 14 10 14 -14 0 -29 -5 -32 -10z"/>
<path d="M7236 3685 c-19 -35 -19 -36 0 -50 10 -8 24 -14 29 -14 6 0 1 6 -10
14 -18 15 -18 16 -2 44 19 32 21 41 9 41 -4 0 -16 -16 -26 -35z"/>
<path d="M7282 3685 c-15 -33 -15 -35 4 -35 8 0 12 -4 9 -10 -13 -21 4 -9 18
14 15 22 15 25 -2 40 -16 15 -19 14 -29 -9z"/>
<path d="M7190 3668 c0 -37 20 -72 50 -88 24 -13 74 9 84 37 6 14 5 16 -5 6
-16 -16 -81 -17 -97 -1 -7 7 -12 24 -12 39 0 15 -4 31 -10 34 -6 4 -10 -7 -10
-27z"/>
<path d="M7505 3550 c3 -5 8 -10 11 -10 2 0 4 5 4 10 0 6 -5 10 -11 10 -5 0
-7 -4 -4 -10z"/>
<path d="M5240 6431 c-7 -15 -7 -21 0 -21 12 0 25 28 17 36 -3 3 -10 -4 -17
-15z"/>
<path d="M1733 5725 c-3 -9 -3 -19 1 -22 3 -4 6 1 6 11 0 13 6 15 25 10 15 -4
25 -2 25 5 0 17 -50 13 -57 -4z"/>
<path d="M1812 5691 c-1 -40 17 -89 35 -95 24 -10 26 -2 9 39 -14 32 -14 38
-1 52 20 19 20 20 -14 25 -25 4 -29 1 -29 -21z"/>
<path d="M1752 5695 c-19 -22 -5 -62 24 -68 29 -5 31 10 9 53 -18 34 -16 34
-33 15z"/>
<path d="M1980 5645 c0 -14 5 -25 10 -25 6 0 10 11 10 25 0 14 -4 25 -10 25
-5 0 -10 -11 -10 -25z"/>
<path d="M1550 4926 c0 -8 -6 -16 -12 -19 -7 -2 -10 -8 -5 -12 4 -5 14 0 22
11 17 23 19 34 5 34 -5 0 -10 -6 -10 -14z"/>
</g>
</svg>
