<?xml version="1.0" standalone="no"?>
<!DOCTYPE svg PUBLIC "-//W3C//DTD SVG 20010904//EN"
 "http://www.w3.org/TR/2001/REC-SVG-20010904/DTD/svg10.dtd">
<svg version="1.0" xmlns="http://www.w3.org/2000/svg"
 width="840.000000pt" height="159.000000pt" viewBox="0 0 840.000000 159.000000"
 preserveAspectRatio="xMidYMid meet">

<g transform="translate(0.000000,159.000000) scale(0.100000,-0.100000)"
fill="#000000" stroke="none">
<path d="M5719 1249 c-38 -40 -53 -99 -45 -175 6 -55 4 -62 -18 -83 -37 -35
-69 -117 -61 -157 11 -63 68 -80 134 -42 l38 22 24 -23 24 -22 9 31 c6 19 5
39 -2 54 -8 18 -7 28 2 42 7 11 18 34 26 52 11 29 11 35 -1 43 -22 14 -27 11
-44 -21 -9 -16 -19 -30 -24 -30 -5 0 -14 20 -21 45 -12 44 -12 45 23 84 48 54
67 92 67 140 0 49 -20 71 -67 71 -26 0 -42 -8 -64 -31z m79 -47 c4 -28 -37
-102 -56 -102 -11 0 -14 11 -10 50 3 27 11 56 18 65 18 22 44 15 48 -13z m-77
-297 c15 -42 15 -45 -2 -61 -42 -38 -75 13 -49 77 17 41 33 36 51 -16z"/>
<path d="M4890 1266 c0 -3 -22 -111 -50 -240 -27 -130 -50 -240 -50 -246 0 -5
13 -10 28 -10 l29 0 33 160 c18 88 37 160 43 160 5 0 7 -32 3 -80 -3 -44 -9
-117 -12 -161 -8 -109 10 -103 54 17 67 182 86 228 89 218 2 -6 -10 -75 -27
-153 -16 -78 -30 -146 -30 -151 0 -6 13 -10 29 -10 28 0 29 1 51 108 12 59 35
167 51 239 16 73 29 138 29 144 0 6 -17 9 -41 7 l-42 -3 -45 -112 c-25 -62
-50 -113 -55 -113 -5 0 -7 52 -5 115 l3 115 -42 0 c-24 0 -43 -2 -43 -4z"/>
<path d="M6435 1258 c-2 -7 -25 -110 -50 -228 -25 -118 -47 -225 -50 -237 -5
-20 -1 -23 25 -23 16 0 30 2 30 4 0 8 50 240 56 259 10 33 24 6 24 -46 0 -29
3 -89 7 -134 l6 -83 28 0 c16 0 29 2 29 4 0 2 23 108 50 237 28 129 50 240 50
247 0 9 -10 12 -27 10 -27 -3 -29 -7 -55 -132 -39 -185 -44 -184 -54 2 l-7
132 -29 0 c-16 0 -31 -6 -33 -12z"/>
<path d="M1491 1185 c-87 -16 -203 -70 -415 -193 -109 -64 -143 -88 -130 -92
10 -4 -22 -10 -71 -14 -49 -3 -107 -9 -130 -11 -24 -3 -33 -2 -22 3 27 12
-322 3 -368 -9 -44 -12 -139 -58 -133 -64 2 -2 21 0 43 4 22 5 72 12 110 15
l70 6 -75 -33 c-41 -19 -99 -48 -128 -65 -65 -39 -77 -40 -97 -4 -15 26 -16
26 -9 2 11 -44 30 -56 67 -42 29 10 30 10 13 -3 -34 -26 -64 -18 -85 23 -19
36 -31 16 -31 -54 l0 -65 113 3 112 3 30 46 c17 26 38 60 47 78 l17 31 199 0
c156 0 202 -3 211 -14 6 -7 40 -76 75 -152 38 -82 71 -140 80 -142 17 -4 19
29 16 333 l-1 120 190 108 c207 119 244 133 367 145 82 8 93 6 75 -13 -5 -6
-28 -55 -51 -110 -23 -55 -51 -107 -61 -116 -15 -13 -54 -17 -235 -21 -196 -5
-219 -7 -231 -24 -10 -13 -13 -64 -13 -204 0 -103 3 -190 6 -193 4 -4 25 10
47 30 51 45 180 106 287 135 l83 22 23 50 c38 82 36 86 -46 86 -38 0 -70 4
-70 9 0 15 28 21 99 21 l67 0 62 150 c34 83 62 160 62 170 0 20 6 20 243 18
279 -3 269 1 223 -102 -14 -31 -22 -56 -19 -56 9 0 203 182 203 191 0 15 -734
9 -819 -6z"/>
<path d="M2399 1191 c-47 -15 -74 -33 -149 -105 -169 -160 -612 -588 -715
-689 -108 -107 -109 -108 -47 -66 68 47 116 87 586 496 l299 260 579 8 c373 5
583 4 590 -3 6 -6 3 -16 -9 -27 -16 -17 -50 -18 -581 -13 l-563 5 -93 -76
c-269 -220 -476 -393 -476 -396 0 -6 79 51 350 253 l232 172 557 0 556 0 56
24 c31 12 71 33 88 46 32 22 91 95 91 112 0 10 -1316 9 -1351 -1z"/>
<path d="M1686 1142 c-2 -4 -39 -90 -81 -192 -43 -102 -87 -206 -98 -233 -11
-26 -18 -49 -16 -51 2 -3 33 2 69 9 100 22 104 16 10 -11 -47 -14 -89 -29 -93
-33 -8 -8 -87 -186 -87 -196 0 -3 31 -5 68 -5 l68 0 169 163 c94 89 200 191
238 226 37 35 67 68 67 73 0 4 -81 8 -180 8 -143 0 -180 3 -180 13 0 8 18 58
40 112 22 54 40 102 40 106 0 10 -28 20 -34 11z"/>
<path d="M2346 928 l-58 -43 446 -3 c245 -1 446 -6 446 -11 0 -31 -30 -33
-488 -30 -420 3 -460 1 -483 -14 -23 -17 1 -17 476 -15 l500 3 49 25 c43 22
126 102 126 123 0 4 -215 7 -478 7 l-478 0 -58 -42z"/>
<path d="M2080 730 l-54 -40 398 0 c353 0 397 -2 386 -15 -11 -13 -70 -15
-419 -15 -346 -1 -409 -3 -426 -16 -18 -13 26 -15 420 -12 489 3 467 0 540 74
67 66 81 64 -378 64 l-413 0 -54 -40z"/>
<path d="M466 701 c-11 -4 -36 -39 -55 -77 l-36 -69 -135 -5 -135 -5 -3 -42
c-2 -26 1 -43 7 -43 6 0 12 17 12 38 l2 37 7 -40 c7 -38 7 -38 9 -8 2 47 21
52 22 6 l2 -38 7 40 c7 39 7 39 9 8 0 -18 6 -33 11 -33 6 0 11 15 11 33 2 30
2 30 6 4 2 -15 8 -25 13 -22 5 3 7 12 4 19 -3 8 -1 17 5 21 7 3 11 -3 12 -17
1 -23 1 -23 9 2 9 24 9 24 7 -5 -2 -34 -42 -59 -119 -74 l-43 -9 43 -1 c24 -1
53 4 65 10 22 12 22 12 3 -10 -13 -15 -31 -21 -58 -21 -85 0 -5 -54 106 -71
43 -7 71 -7 83 0 11 5 46 72 82 155 59 134 81 176 68 126 -6 -24 -9 -24 44 0
59 26 143 26 194 0 47 -24 49 -24 41 -5 -3 8 -3 15 -1 15 5 0 32 -50 46 -87
10 -26 8 -26 -23 8 -58 64 -129 88 -207 69 -94 -22 -154 -98 -157 -202 -2 -47
2 -64 25 -100 36 -54 67 -82 110 -97 95 -31 197 9 255 100 20 33 28 106 16
149 -13 46 -1 31 45 -58 l40 -77 250 -3 251 -2 29 30 29 30 -260 0 -260 0 -75
152 c-53 110 -81 156 -99 165 -28 14 -281 17 -314 4z m255 -200 c35 -34 39
-44 39 -87 0 -61 -25 -105 -73 -127 -48 -23 -88 -21 -128 6 -46 31 -71 82 -64
130 11 77 57 116 139 117 43 0 53 -4 87 -39z"/>
<path d="M576 511 c-3 -4 3 -16 14 -26 40 -36 12 -77 -30 -45 -32 25 -40 25
-40 0 0 -15 7 -20 26 -20 31 0 28 -23 -4 -28 -14 -2 -22 -11 -22 -23 0 -24 8
-24 36 2 24 22 54 20 54 -4 0 -8 -9 -22 -20 -32 -25 -23 -25 -35 -1 -35 12 0
21 8 23 22 4 27 28 37 28 11 0 -27 14 -43 28 -34 10 6 9 14 -5 39 -14 25 -15
34 -6 43 10 10 19 8 42 -9 29 -21 41 -20 41 4 0 7 -12 14 -27 16 -35 4 -43 28
-9 28 29 0 43 17 27 33 -7 7 -16 6 -29 -6 -41 -37 -72 -6 -35 35 12 13 13 22
6 29 -16 16 -33 2 -33 -27 0 -34 -24 -26 -28 9 -3 26 -25 37 -36 18z m82 -109
c-5 -24 -52 -23 -56 2 -2 10 2 22 9 27 18 11 51 -9 47 -29z"/>
<path d="M3235 688 c-3 -10 -37 -198 -70 -396 l-6 -32 135 0 136 0 6 28 c3 15
8 35 11 45 4 15 -4 17 -75 17 -43 0 -81 2 -84 5 -3 3 6 67 19 143 14 75 25
151 26 167 2 29 0 30 -46 33 -32 2 -49 -1 -52 -10z"/>
<path d="M3641 648 c-28 -141 -50 -289 -45 -305 23 -70 77 -100 168 -90 126
13 155 53 194 272 16 88 27 163 25 168 -6 11 -91 9 -98 -3 -3 -5 -17 -74 -31
-152 -28 -155 -39 -182 -79 -192 -26 -7 -75 14 -75 32 0 5 11 71 25 148 33
186 35 174 -24 174 l-50 0 -10 -52z"/>
<path d="M4130 695 c0 -2 18 -51 40 -107 22 -57 40 -107 40 -111 0 -4 -34 -53
-75 -107 -41 -54 -75 -102 -75 -105 0 -3 26 -5 58 -5 l57 0 45 65 c25 36 49
63 54 62 5 -2 20 -31 34 -65 l26 -62 58 0 c32 0 58 4 58 9 0 5 -18 49 -40 99
-22 49 -40 96 -40 103 0 8 36 60 80 117 44 56 80 104 80 107 0 3 -26 5 -57 5
l-58 -1 -54 -70 c-29 -39 -57 -67 -61 -62 -4 4 -18 36 -30 71 l-23 62 -58 0
c-33 0 -59 -2 -59 -5z"/>
<path d="M4676 692 c-2 -4 -17 -79 -32 -165 -31 -176 -28 -216 17 -250 35 -25
104 -32 168 -17 37 9 59 22 86 51 19 21 35 40 35 42 0 1 14 74 30 162 16 88
30 166 30 173 0 9 -14 12 -52 10 l-52 -3 -27 -150 c-15 -82 -30 -157 -34 -167
-10 -26 -61 -43 -90 -30 -32 15 -32 36 -1 207 13 72 22 133 19 138 -6 10 -91
9 -97 -1z"/>
<path d="M5196 691 c-8 -12 -75 -384 -76 -413 0 -15 9 -18 54 -18 l54 0 12 80
c11 72 15 80 34 80 19 0 26 -11 45 -80 l24 -80 58 0 c33 0 59 3 59 8 0 4 -12
42 -25 86 l-25 78 25 25 c30 31 47 89 43 150 -5 72 -32 87 -167 91 -73 3 -111
0 -115 -7z m162 -103 c7 -7 12 -24 12 -38 0 -36 -17 -50 -62 -50 -41 0 -44 6
-32 69 6 27 11 31 38 31 18 0 37 -5 44 -12z"/>
<path d="M5628 695 c-3 -4 14 -63 39 -133 l45 -127 -14 -87 -15 -88 53 0 53 0
11 58 c6 31 13 69 16 84 3 14 44 82 91 149 47 68 88 130 90 136 4 9 -9 13 -45
13 l-49 0 -53 -80 c-29 -44 -56 -80 -61 -80 -4 0 -18 35 -31 78 l-24 77 -50 3
c-27 2 -53 0 -56 -3z"/>
<path d="M6450 678 c-62 -32 -85 -71 -105 -180 -31 -172 -20 -218 57 -239 54
-14 139 -6 181 18 33 20 61 60 72 106 7 27 7 27 -44 27 -45 0 -53 -3 -63 -24
-6 -14 -23 -30 -39 -37 -24 -9 -33 -9 -55 5 -20 14 -24 23 -20 44 3 15 11 58
17 96 17 100 69 145 114 99 13 -13 16 -27 11 -60 l-6 -43 44 0 c54 0 67 15 74
80 3 36 0 57 -13 76 -36 56 -146 71 -225 32z"/>
<path d="M6926 691 c-3 -5 -33 -85 -66 -177 -34 -93 -68 -186 -76 -207 -8 -20
-14 -40 -14 -43 0 -3 26 -4 57 -2 57 3 57 3 66 41 10 43 34 60 80 55 31 -3 32
-5 35 -50 l3 -48 55 0 54 0 0 220 0 220 -94 0 c-52 0 -97 -4 -100 -9z m94
-176 l0 -75 -40 0 c-22 0 -40 3 -40 7 0 4 10 37 22 75 16 51 27 68 40 68 16 0
18 -9 18 -75z"/>
<path d="M7356 689 c-3 -8 -19 -95 -36 -194 -17 -99 -33 -192 -36 -207 -6 -28
-5 -28 50 -28 60 0 59 -1 71 80 10 69 15 80 35 80 15 0 24 -17 43 -77 l24 -78
60 -3 61 -3 -26 85 -25 84 26 31 c29 35 52 127 42 172 -11 50 -43 62 -171 67
-90 4 -115 2 -118 -9z m174 -114 c10 -26 4 -55 -14 -67 -6 -4 -28 -8 -49 -8
l-38 0 6 38 c10 59 12 62 50 62 29 0 37 -5 45 -25z"/>
<path d="M7907 686 c-66 -24 -97 -66 -97 -133 0 -49 19 -75 67 -95 21 -9 57
-24 80 -33 75 -31 62 -90 -17 -83 -27 2 -38 9 -48 31 -12 24 -18 27 -63 27
l-49 0 0 -43 c0 -56 20 -82 74 -96 130 -33 244 12 261 102 15 76 -21 126 -103
147 -26 6 -57 18 -70 26 -52 34 3 90 66 68 21 -7 27 -16 27 -37 -1 -26 1 -27
52 -27 51 0 52 0 59 34 14 75 -46 126 -146 126 -30 -1 -72 -7 -93 -14z"/>
<path d="M1360 592 c-80 -34 -165 -89 -204 -131 l-30 -31 122 0 123 0 20 48
c50 113 59 142 46 142 -6 0 -41 -13 -77 -28z"/>
<path d="M1857 563 c-20 -14 -37 -29 -37 -33 0 -4 142 -5 316 -2 267 4 316 3
312 -9 -4 -12 -65 -14 -343 -17 -206 -1 -343 -6 -349 -12 -7 -7 110 -10 340
-10 318 0 353 2 390 19 38 17 84 62 84 82 0 5 -152 9 -338 9 l-337 0 -38 -27z"/>
<path d="M960 223 c-145 -3 -168 -6 -190 -23 -25 -19 -12 -20 1455 -19 814 1
1453 5 1420 10 -157 21 -643 31 -1545 33 -536 1 -1049 1 -1140 -1z"/>
<path d="M315 199 c-188 -12 -183 -17 19 -18 160 -1 178 1 160 14 -10 8 -26
14 -34 13 -8 0 -73 -5 -145 -9z"/>
</g>
</svg>
